# xmcd
#
# Track frame offsets: 
#        150
#        25501
#        39140
#        53625
#        79555
#        93668
#        117750
#        130245
#        156627
#        170447
#        186303
#        196562
#        212978
#
# Disc length: 3016 seconds
#
# Revision: 0
# Processed by: cddbd v1.5.2PL0 Copyright (c) Steve Scherf et al.
# Submitted via: ExactAudioCopy v0.95a5
#
DISCID=a30bc60d
DTITLE=Harpin Jonny - Harpin' Around
DYEAR=2009
DGENRE=Blues
TTITLE0=When The Train Comes
TTITLE1=Long Distance Call
TTITLE2=Condition Crazy
TTITLE3=Lonesome Whistle Blues
TTITLE4=Southbound
TTITLE5=Sunnytown
TTITLE6=Jaguar And Thunderbird
TTITLE7=I'll Be Long Gone
TTITLE8=Walkin' Blues
TTITLE9=Too Many Drivers
TTITLE10=Street Walkin' Woman
TTITLE11=Girl Can't Help It
TTITLE12=Leopard Skin Pill Box
EXTD=
EXTT0=
EXTT1=
EXTT2=
EXTT3=
EXTT4=
EXTT5=
EXTT6=
EXTT7=
EXTT8=
EXTT9=
EXTT10=
EXTT11=
EXTT12=
PLAYORDER=
